<?xml version="1.0" encoding="UTF-8" standalone="no"?>
<svg
   xmlns:dc="http://purl.org/dc/elements/1.1/"
   xmlns:cc="http://creativecommons.org/ns#"
   xmlns:rdf="http://www.w3.org/1999/02/22-rdf-syntax-ns#"
   xmlns:svg="http://www.w3.org/2000/svg"
   xmlns="http://www.w3.org/2000/svg"
   xmlns:xlink="http://www.w3.org/1999/xlink"
   xmlns:sodipodi="http://sodipodi.sourceforge.net/DTD/sodipodi-0.dtd"
   xmlns:inkscape="http://www.inkscape.org/namespaces/inkscape"
   width="500.6149mm"
   height="523.24762mm"
   viewBox="0 0 500.6149 523.24762"
   version="1.1"
   id="svg8"
   inkscape:version="1.0.2 (e86c870, 2021-01-15)"
   sodipodi:docname="Cosmology.svg">
  <defs
     id="defs2">
    <linearGradient
       inkscape:collect="always"
       id="linearGradient1467">
      <stop
         style="stop-color:#c8ab37;stop-opacity:1"
         offset="0"
         id="stop1463" />
      <stop
         style="stop-color:#ffe680;stop-opacity:1"
         offset="1"
         id="stop1465" />
    </linearGradient>
    <linearGradient
       inkscape:collect="always"
       id="linearGradient1280">
      <stop
         style="stop-color:#ac922c;stop-opacity:1"
         offset="0"
         id="stop1276" />
      <stop
         style="stop-color:#ffe680;stop-opacity:1"
         offset="1"
         id="stop1278" />
    </linearGradient>
    <linearGradient
       inkscape:collect="always"
       id="linearGradient1274">
      <stop
         style="stop-color:#a88e28;stop-opacity:1"
         offset="0"
         id="stop1270" />
      <stop
         style="stop-color:#ffe680;stop-opacity:1"
         offset="1"
         id="stop1272" />
    </linearGradient>
    <linearGradient
       inkscape:collect="always"
       id="linearGradient1268">
      <stop
         style="stop-color:#a18721;stop-opacity:1"
         offset="0"
         id="stop1264" />
      <stop
         style="stop-color:#ffe680;stop-opacity:1"
         offset="1"
         id="stop1266" />
    </linearGradient>
    <linearGradient
       inkscape:collect="always"
       id="linearGradient1040">
      <stop
         style="stop-color:#c8ab37;stop-opacity:1;"
         offset="0"
         id="stop1036" />
      <stop
         style="stop-color:#ffe680;stop-opacity:1"
         offset="1"
         id="stop1038" />
    </linearGradient>
    <radialGradient
       inkscape:collect="always"
       xlink:href="#linearGradient1040"
       id="radialGradient1046"
       gradientUnits="userSpaceOnUse"
       gradientTransform="matrix(2.846652,0.36119176,-0.34413904,2.712255,123.33483,-329.18216)"
       cx="61.678215"
       cy="141.20778"
       fx="61.678215"
       fy="141.20778"
       r="11.735388" />
    <radialGradient
       inkscape:collect="always"
       xlink:href="#linearGradient1040"
       id="radialGradient1054"
       cx="4.0125608"
       cy="-206.0777"
       fx="4.0125608"
       fy="-206.0777"
       r="28.052269"
       gradientTransform="matrix(-4.1485218,-0.10113424,0.04083141,-1.6749025,-154.11607,-548.53592)"
       gradientUnits="userSpaceOnUse" />
    <radialGradient
       inkscape:collect="always"
       xlink:href="#linearGradient1040"
       id="radialGradient1214"
       cx="39.102268"
       cy="216.62094"
       fx="39.102268"
       fy="216.62094"
       r="32.591446"
       gradientTransform="matrix(3.5182982,0.23062829,-0.02413079,0.36812186,114.75535,138.47827)"
       gradientUnits="userSpaceOnUse" />
    <radialGradient
       inkscape:collect="always"
       xlink:href="#linearGradient1040"
       id="radialGradient1216"
       cx="67.011475"
       cy="200.77995"
       fx="67.011475"
       fy="200.77995"
       r="10.365073"
       gradientUnits="userSpaceOnUse"
       gradientTransform="matrix(4.5118132,-0.10283313,0.05522195,2.4228674,-55.289174,-310.57051)" />
    <radialGradient
       inkscape:collect="always"
       xlink:href="#linearGradient1040"
       id="radialGradient1218"
       cx="-58.635185"
       cy="236.4119"
       fx="-58.635185"
       fy="236.4119"
       r="32.591446"
       gradientTransform="matrix(3.284759,0.01766969,-0.00505553,0.939814,286.91966,13.772222)"
       gradientUnits="userSpaceOnUse" />
    <radialGradient
       inkscape:collect="always"
       xlink:href="#linearGradient1040"
       id="radialGradient1220"
       cx="5.0172095"
       cy="251.11302"
       fx="5.0172095"
       fy="251.11302"
       r="28.052269"
       gradientTransform="matrix(2.3394639,-0.06738906,0.04897591,1.7002376,169.3665,-146.62126)"
       gradientUnits="userSpaceOnUse" />
    <radialGradient
       inkscape:collect="always"
       xlink:href="#linearGradient1280"
       id="radialGradient1222"
       cx="34.642078"
       cy="317.50821"
       fx="34.642078"
       fy="317.50821"
       r="66.804382"
       gradientTransform="matrix(2.7936212,-0.0113764,0.01112962,2.7330184,79.221388,-583.37811)"
       gradientUnits="userSpaceOnUse" />
    <radialGradient
       inkscape:collect="always"
       xlink:href="#linearGradient1040"
       id="radialGradient1230"
       cx="76.301025"
       cy="190.0943"
       fx="76.301025"
       fy="190.0943"
       r="3.1803865"
       gradientUnits="userSpaceOnUse"
       gradientTransform="matrix(2.4612358,-0.04609565,0.0503217,2.6868841,75.411953,-354.85619)" />
    <radialGradient
       inkscape:collect="always"
       xlink:href="#linearGradient1040"
       id="radialGradient1232"
       cx="79.663818"
       cy="200.52762"
       fx="79.663818"
       fy="200.52762"
       r="3.1803865"
       gradientUnits="userSpaceOnUse"
       gradientTransform="matrix(1.843035,1.2495364,-0.84554483,1.2471575,300.14265,-182.78603)" />
    <radialGradient
       inkscape:collect="always"
       xlink:href="#linearGradient1040"
       id="radialGradient1234"
       cx="72.412231"
       cy="202.76971"
       fx="72.412231"
       fy="202.76971"
       r="3.1803865"
       gradientUnits="userSpaceOnUse"
       gradientTransform="matrix(-3.3111533,0.2022493,-0.14580543,-2.3870753,535.63453,637.10115)" />
    <radialGradient
       inkscape:collect="always"
       xlink:href="#linearGradient1040"
       id="radialGradient1236"
       cx="68.050041"
       cy="192.61649"
       fx="68.050041"
       fy="192.61649"
       r="3.1803865"
       gradientUnits="userSpaceOnUse"
       gradientTransform="matrix(-0.7419348,-2.6815898,2.8138378,-0.77852482,-229.73818,487.38622)" />
    <radialGradient
       inkscape:collect="always"
       xlink:href="#linearGradient1274"
       id="radialGradient1244"
       cx="68.425636"
       cy="-197.66832"
       fx="68.425636"
       fy="-197.66832"
       r="44.389488"
       gradientTransform="matrix(-0.78227281,1.2114639,-3.0177729,-1.9486516,-311.3761,-798.62921)"
       gradientUnits="userSpaceOnUse" />
    <radialGradient
       inkscape:collect="always"
       xlink:href="#linearGradient1268"
       id="radialGradient1262"
       cx="57.201736"
       cy="298.21606"
       fx="57.201736"
       fy="298.21606"
       r="20.795658"
       gradientUnits="userSpaceOnUse"
       gradientTransform="matrix(3.8913829,-0.37975668,0.32393355,3.3193611,-81.013529,-653.78314)" />
    <radialGradient
       inkscape:collect="always"
       xlink:href="#linearGradient1040"
       id="radialGradient1421"
       gradientUnits="userSpaceOnUse"
       gradientTransform="matrix(2.4612358,-0.04609565,0.0503217,2.6868841,118.71179,-378.78068)"
       cx="76.301025"
       cy="190.0943"
       fx="76.301025"
       fy="190.0943"
       r="3.1803865" />
    <radialGradient
       inkscape:collect="always"
       xlink:href="#linearGradient1040"
       id="radialGradient1425"
       gradientUnits="userSpaceOnUse"
       gradientTransform="matrix(2.4612358,-0.04609565,0.0503217,2.6868841,131.91813,-339.25448)"
       cx="76.301025"
       cy="190.0943"
       fx="76.301025"
       fy="190.0943"
       r="3.1803865" />
    <radialGradient
       inkscape:collect="always"
       xlink:href="#linearGradient1040"
       id="radialGradient1429"
       gradientUnits="userSpaceOnUse"
       gradientTransform="matrix(2.4612358,-0.04609565,0.0503217,2.6868841,126.23527,-356.86545)"
       cx="76.301025"
       cy="190.0943"
       fx="76.301025"
       fy="190.0943"
       r="3.1803865" />
    <radialGradient
       inkscape:collect="always"
       xlink:href="#linearGradient1040"
       id="radialGradient1433"
       gradientUnits="userSpaceOnUse"
       gradientTransform="matrix(2.4612358,-0.04609565,0.0503217,2.6868841,123.24084,-367.38798)"
       cx="76.301025"
       cy="190.0943"
       fx="76.301025"
       fy="190.0943"
       r="3.1803865" />
    <radialGradient
       inkscape:collect="always"
       xlink:href="#linearGradient1040"
       id="radialGradient1445"
       gradientUnits="userSpaceOnUse"
       gradientTransform="matrix(2.4612358,-0.04609565,0.0503217,2.6868841,8.5747536,-332.76708)"
       cx="76.301025"
       cy="190.0943"
       fx="76.301025"
       fy="190.0943"
       r="3.1803865" />
    <radialGradient
       inkscape:collect="always"
       xlink:href="#linearGradient1040"
       id="radialGradient1447"
       gradientUnits="userSpaceOnUse"
       gradientTransform="matrix(2.4612358,-0.04609565,0.0503217,2.6868841,16.210064,-308.66346)"
       cx="76.301025"
       cy="190.0943"
       fx="76.301025"
       fy="190.0943"
       r="3.1803865" />
    <radialGradient
       inkscape:collect="always"
       xlink:href="#linearGradient1040"
       id="radialGradient1449"
       gradientUnits="userSpaceOnUse"
       gradientTransform="matrix(2.4612358,-0.04609565,0.0503217,2.6868841,3.003724,-348.18966)"
       cx="76.301025"
       cy="190.0943"
       fx="76.301025"
       fy="190.0943"
       r="3.1803865" />
    <radialGradient
       inkscape:collect="always"
       xlink:href="#linearGradient1040"
       id="radialGradient1451"
       gradientUnits="userSpaceOnUse"
       gradientTransform="matrix(2.4612358,-0.04609565,0.0503217,2.6868841,11.825109,-319.50627)"
       cx="76.301025"
       cy="190.0943"
       fx="76.301025"
       fy="190.0943"
       r="3.1803865" />
    <radialGradient
       inkscape:collect="always"
       xlink:href="#linearGradient1467"
       id="radialGradient1461"
       cx="344.21243"
       cy="267.70627"
       fx="344.21243"
       fy="267.70627"
       r="13.541139"
       gradientTransform="matrix(2.079159,3.442109,-3.9032722,2.357718,660.82523,-1571.102)"
       gradientUnits="userSpaceOnUse" />
  </defs>
  <sodipodi:namedview
     id="base"
     pagecolor="#ffffff"
     bordercolor="#666666"
     borderopacity="1.0"
     inkscape:pageopacity="0.0"
     inkscape:pageshadow="2"
     inkscape:zoom="0.7445326"
     inkscape:cx="692.95967"
     inkscape:cy="441.57813"
     inkscape:document-units="mm"
     inkscape:current-layer="layer1"
     inkscape:document-rotation="0"
     showgrid="false"
     inkscape:window-width="1920"
     inkscape:window-height="996"
     inkscape:window-x="0"
     inkscape:window-y="0"
     inkscape:window-maximized="1"
     fit-margin-top="0"
     fit-margin-left="0"
     fit-margin-right="0"
     fit-margin-bottom="0" />
  <metadata
     id="metadata5">
    <rdf:RDF>
      <cc:Work
         rdf:about="">
        <dc:format>image/svg+xml</dc:format>
        <dc:type
           rdf:resource="http://purl.org/dc/dcmitype/StillImage" />
        <dc:title />
      </cc:Work>
    </rdf:RDF>
  </metadata>
  <g
     inkscape:label="Layer 1"
     inkscape:groupmode="layer"
     id="layer1"
     transform="translate(88.455059,218.51355)">
    <ellipse
       style="fill:none;stroke:#ff0000;stroke-width:1.68109"
       id="ellipse915"
       cx="88.051125"
       cy="-84.001984"
       rx="148.93184"
       ry="79.524353"
       transform="matrix(0.98050762,-0.19648108,0.18737703,0.98228807,0,0)" />
    <path
       style="fill:url(#radialGradient1222);fill-opacity:1;stroke:#c8ab37;stroke-width:0.220562;stroke-miterlimit:4;stroke-dasharray:none;stroke-opacity:1"
       d="m 277.67739,280.10982 c -2.34907,-1.0977 -4.60075,-1.95192 -6.0592,-4.24376 -1.11628,-1.75416 -1.66274,-3.9037 -2.81924,-5.63848 -1.05014,-1.57518 -2.63243,-2.72678 -3.75897,-4.22883 -0.14856,-0.19808 -0.10744,-0.49245 -0.23493,-0.70479 -0.83771,-1.39619 -3.63016,-3.89087 -4.93365,-4.93367 -1.15746,-0.92596 -5.29656,-2.21261 -6.81313,-2.81922 -1.9806,-0.79224 -4.04094,-1.30862 -6.00285,-2.09352 -1.3056,-0.52229 -2.644,-1.25879 -3.99138,-1.64353 -0.73502,-0.20988 -1.5917,-0.15077 -2.34938,-0.23493 -2.57301,-0.28586 -4.95465,-1.04343 -7.51794,-1.40961 -1.66571,-0.23797 -3.5445,-0.2176 -5.16857,-0.70484 -0.65982,0.0309 -1.07877,-0.51611 -1.64456,-0.70477 -2.97676,-0.9927 -5.97336,-1.50136 -8.68909,-3.0532 -1.8888,-1.07932 -3.38256,-2.80323 -5.16858,-3.9939 -1.97724,-1.31817 -5.0225,-5.78586 -5.63138,-8.20154 -0.0955,-0.37896 0.0643,-0.78695 0,-1.17243 -0.23431,-1.40417 -0.2521,-3.33829 -0.70482,-4.69639 -0.33758,-1.01274 -0.72409,-1.94915 -0.93972,-3.02735 -0.19761,-0.98803 -0.14903,-2.09114 -0.46934,-3.05207 -0.58045,-1.74138 -3.37484,-4.77985 -4.6858,-6.09081 -0.66691,-0.66691 -1.33961,-1.59122 -2.11441,-2.11443 -1.38316,-0.934 -4.40753,-2.23027 -6.0688,-2.56231 -0.59896,-0.11973 -1.28727,0.14794 -1.87884,0 -2.10988,-0.52749 -4.37166,-0.11532 -6.30027,-1.39934 -4.11261,-2.73808 -6.08503,-9.83465 -5.59291,-14.58818 0.18879,-1.82357 0.66111,-3.45006 0.66111,-5.32259 0,-0.41085 0,0.82168 0,1.23254 0,0.77821 0.82663,3.07356 1.36132,3.60825 2.16401,2.16404 4.11874,2.38567 6.76001,3.70628 0.56126,0.28064 1.06063,0.8825 1.64411,1.17424 0.21013,0.10509 0.4818,-0.0739 0.70481,0 0.66356,0.21993 1.08094,1.11115 1.83105,1.36118 0.22288,0.0744 0.47308,-0.0386 0.70481,0 1.51088,0.25182 2.92575,0.7472 4.46235,0.93928 0.76879,0.0961 1.58245,-0.10949 2.34936,0 2.32965,0.3328 4.69307,0.67831 7.04594,0.93974 2.7393,0.30437 6.77392,-0.57918 9.39527,0.46934 0.42396,0.16958 0.76624,0.50058 1.17468,0.70478 0.89039,0.44519 1.91009,0.48519 2.81921,0.93975 0.48593,0.24297 0.9415,0.69534 1.40963,0.93974 0.72788,0.38004 1.50707,0.64051 2.20516,1.10898 0.46787,0.31397 1.06745,0.88268 1.57024,1.10037 0.14604,0.0632 0.55968,0.1336 0.65556,0.23294 0.7777,0.80562 2.58775,2.38207 2.8131,3.50883 0.046,0.23037 -0.10508,0.49468 0,0.70482 0.19812,0.39622 0.79946,0.51951 0.93974,0.93971 0.23499,0.70399 0.96201,2.74308 1.37274,3.35119 0.85778,1.26998 3.62969,3.91471 4.9296,4.69468 0.6505,0.3903 1.4259,0.59582 2.11376,0.93975 1.63222,0.81611 3.04154,2.43456 4.91737,2.81379 1.10226,0.22284 2.74604,0.008 3.71139,-0.23303 0.37867,-0.0945 0.79221,0.0947 1.17084,0 0.71052,-0.17763 1.25745,-0.86367 1.8795,-1.17468 0.26379,-0.13186 0.82654,-0.0852 1.01121,-0.37672 0.4547,-0.71781 -1.02519,-1.77664 -1.40961,-2.16104 -2.97736,-2.97736 -4.9094,-4.21576 -6.00791,-8.60977 -0.34931,-1.39726 -0.15707,-4.99616 0.45344,-6.21708 0.34684,-0.69368 0.89246,-1.3154 1.14292,-2.06681 0.36776,-1.10326 0.74361,-2.28679 1.40298,-3.27582 1.08808,-1.63207 3.10351,-3.67343 3.71386,-5.56392 0.072,-0.22317 -0.0569,-0.47604 0,-0.70353 0.10241,-0.40911 0.37839,-0.76299 0.46988,-1.17467 0.6787,-3.05408 -1.35334,-9.17779 -3.04257,-11.62175 -0.24701,-0.35736 -0.66906,-0.56804 -0.92157,-0.92156 -1.66018,-2.32424 -3.00085,-5.24944 -5.49521,-6.90273 -0.72119,-0.478 -1.55755,-0.76182 -2.20326,-1.3443 -0.0518,-0.0468 0.14368,-0.0236 0.20942,0 0.4906,0.17627 0.94404,0.48895 1.36582,0.69565 0.76773,0.37624 2.32136,0.8376 3.2573,1.15877 1.6827,0.57743 3.36122,0.89704 5.1049,1.39524 1.05948,0.3027 1.87235,1.17112 2.78977,1.62982 0.29671,0.14841 0.88761,0.19079 1.15869,0.46187 0.70032,0.70032 1.37865,1.61359 2.11443,2.34936 0.9372,0.93722 4.33763,4.21464 4.61225,5.0626 0.57736,1.78277 0.86535,8.45426 0.46926,10.43476 -0.24125,1.20617 -0.41548,2.69134 -0.23495,3.95513 0.29473,2.06305 1.16461,3.51217 2.08179,5.31515 0.44925,0.88315 5.45389,3.93208 5.76909,3.74985 0.13202,-0.0764 0,-1.55723 0,-1.71739 0,-2.21313 -0.3975,-4.77397 0.90232,-6.70693 1.00413,-1.4933 -0.37981,0.61433 0.46948,-0.23494 0.53541,-0.53543 0.64457,-1.3368 1.1739,-1.87834 0.37724,-0.38594 1.39898,-0.50179 1.77193,-0.87475 1.48089,-1.4809 4.01223,-2.25489 5.75157,-3.63575 1.51284,-1.20102 2.33819,-2.71499 3.00571,-4.39646 0.18763,-0.47266 0,-1.5522 0,-2.09979 0,-0.18039 0,-0.72154 0,-0.54115 0,0.0874 2.60037,4.88432 2.93635,5.73621 0.12761,0.32374 0,0.80631 0,1.16398 0,0.64943 0.15566,1.44197 0,2.06454 -0.5811,2.32453 -1.56484,4.79227 -0.78517,7.17003 0.0484,0.14731 -0.10602,0.77783 0,0.93629 0.38903,0.5813 1.10825,1.10827 1.60886,1.60889 0.84722,0.8472 2.54498,1.87727 3.75459,1.87727 1.76377,0 3.3774,0.23492 5.10052,0.23492 1.65639,0 2.77273,-1.77644 3.64503,-2.92766 0.85466,-1.12794 2.52829,-3.6321 2.7654,-5.05482 0.23423,-1.40529 0,-3.03675 0,-4.46378 0,-0.65057 0.24168,-1.89869 0,-2.50286 -0.21389,-0.53472 -0.64487,-1.41407 -0.70288,-2.02725 -0.034,-0.35975 0.60869,0.39894 0.86421,0.65444 0.68448,0.68448 1.89855,1.2025 2.3855,2.15124 0.5607,1.09239 1.44562,2.18223 2.04172,3.3744 0.40989,0.81972 0.40562,1.93752 0.68688,2.7813 0.21335,0.64005 0.52327,1.33794 0.68774,1.99584 0.62783,2.51146 -0.71879,5.56298 0.90331,7.96086 0.27158,0.40146 0.15361,0.77707 0.46988,1.14606 0.60377,0.7043 1.98679,1.76239 2.94757,2.08267 1.1935,0.39784 6.09769,1.13335 7.36291,0.70348 0.97487,-0.33121 1.90789,-0.72811 2.79871,-1.17352 1.67491,-0.83745 2.42859,-1.99829 3.45723,-3.46775 2.08706,-2.98152 2.81922,-4.57849 2.81922,-8.22276 0,-1.17761 0.10996,-2.33209 -0.23438,-3.47936 -0.28259,-0.9416 -0.87006,-1.67045 -1.17468,-2.5843 -0.0495,-0.14856 0,-0.31325 0,-0.46988 -0.0783,-0.31322 -0.11501,-0.63992 -0.23493,-0.93971 -0.24163,-0.60404 -0.89911,-1.23647 -1.17468,-1.8795 -1.94435,-4.53693 -3.70905,-10.24897 0.19548,-14.15343 1.01227,-1.01225 1.75769,-3.68815 3.00629,-4.40681 0.24312,-0.1399 0,0.56102 0,0.84152 0,1.2024 -0.16911,2.53678 0,3.72055 0.34133,2.38931 1.49232,4.8588 2.57368,7.02155 0.49896,0.99788 1.7442,2.28001 2.75044,2.61542 0.30412,0.1013 0.88398,-0.14305 1.17014,0 0.47841,0.23917 0.90961,0.73683 1.40164,0.93375 1.87728,0.75132 3.92095,1.34912 5.65093,2.49081 0.73822,0.48721 1.12108,1.36561 1.54385,1.99977 2.86838,4.30267 0.38984,8.4386 0.38984,13.14382 0,0.58582 -0.22216,1.79635 0,2.32539 0.24741,0.58912 0.83979,1.06058 1.32555,1.54634 0.59629,0.59627 1.13885,1.19695 1.87142,1.63649 2.18917,1.31347 6.07178,1.29501 8.43456,0.70431 0.43632,-0.10902 0.95582,0.11107 1.39159,0 0.9736,-0.24816 1.87214,-0.79156 2.81854,-1.17444 4.0227,-1.62741 4.08017,-7.11666 5.26408,-10.67665 0.46909,-1.41051 1.02925,-2.91406 1.3931,-4.36788 0.46935,-1.87531 -1.22725,2.25446 0.23442,-1.6409 0.41129,-1.09608 1.14165,-2.27474 1.64209,-3.27565 0.15061,-0.22578 0.30105,-0.45157 0.45156,-0.67735 0.0783,0 0.18602,0.0611 0.23493,0 0.28527,-0.35657 0.41249,-0.82389 0.70482,-1.17468 0.92302,-1.10763 4.45321,-3.51898 5.87295,-4.22886 1.96968,-0.98482 3.84453,-3.11847 5.63706,-4.46286 1.47002,-1.10248 3.33726,-1.93565 4.66647,-3.26491 1.07285,-1.07286 2.35211,-2.33093 2.9595,-3.85438 0.28416,-0.71271 0.9225,-4.31672 1.14878,-4.5671 0.0469,-0.0518 0,0.13989 0,0.20986 0,0.52254 0,1.04508 0,1.56761 0,1.12206 -0.65768,2.28084 -0.65768,3.51407 0,0.77436 -0.376,1.72463 -0.45641,2.52822 -0.10413,1.04146 0.14809,2.15192 0,3.18837 -0.26458,1.85197 -0.60936,5.17414 -0.23494,7.04356 0.56465,2.81928 2.40425,9.29961 1.63749,12.33838 -0.25095,0.99454 -0.45846,2.07282 -0.9209,2.99764 -0.0495,0.0991 -0.1566,0.15659 -0.23495,0.23494 -0.1566,0.31325 -0.35912,0.60749 -0.46987,0.93974 -0.30972,0.92917 -0.7159,2.169 -1.37785,2.99067 -1.91067,2.37164 -4.87078,3.55512 -7.48536,5.12385 -2.79178,1.67506 -5.53774,3.52669 -8.20942,5.39685 -1.28578,0.90005 -2.79941,1.56044 -3.99391,2.5843 -0.58862,0.50454 -1.03919,1.16027 -1.64456,1.64456 -1.91661,1.53331 -4.0053,3.10925 -5.14435,5.38736 -0.43186,0.86372 -0.70305,1.73536 -1.17468,2.5843 -0.4719,0.84943 -1.35996,1.90068 -1.55195,2.85982 -0.2411,1.20452 -0.24524,6.56921 0,8.01274 0.26239,1.54436 0.49015,3.27616 0.22915,4.84218 -0.74743,4.48466 -2.76601,8.50596 -4.93053,12.40202 -0.35132,0.63238 -0.52801,1.73174 -0.93975,2.34933 -1.37895,2.06846 -3.9683,3.22039 -5.63669,5.16685 -0.29716,0.34672 -0.43096,0.80928 -0.7048,1.17468 -0.72059,0.96155 -1.82704,1.63937 -2.57768,2.57767 -2.3337,2.91713 -4.7001,4.93324 -8.22097,6.34234 -1.7841,0.71406 -4.02168,1.23384 -5.93713,1.61696 -0.74668,0.14935 -1.58294,-0.14935 -2.3296,0 -1.04893,0.20975 -2.07027,0.41832 -3.07675,0.68724 -2.49376,0.66634 -4.77219,1.80893 -7.16518,2.77712 -0.83577,0.33817 -1.86135,0.39373 -2.73769,0.68585 -0.28276,0.0942 -0.65157,-0.0822 -0.93913,0 -1.70562,0.48733 -3.35011,0.69071 -5.08497,0.93851 -0.68661,0.0982 -1.42378,-0.0862 -2.11201,0 -3.93461,0.49245 -10.97713,1.04262 -14.96723,0.23809 -1.70446,-0.34363 -3.10189,-1.49485 -4.81059,-1.83611 -0.34518,-0.069 -0.74883,0.0873 -1.08944,0 -1.62341,-0.41592 -3.0903,-0.56235 -4.66403,-1.16364 z"
       id="path994" />
    <path
       style="fill:url(#radialGradient1461);fill-opacity:1;stroke:#c8ab37;stroke-width:0.14;stroke-miterlimit:4;stroke-dasharray:none;stroke-opacity:1"
       d="m 335.70813,236.69973 c 0.28363,1.24568 15.50008,46.30267 1.88385,46.30267 -13.61619,0 20.38917,4.89665 20.38917,4.89665 z"
       id="path1453"
       sodipodi:nodetypes="cscc" />
    <circle
       style="fill:url(#radialGradient1451);fill-opacity:1;stroke:#d2b43c;stroke-width:0.486743;stroke-miterlimit:4;stroke-dasharray:none;stroke-opacity:1"
       id="circle1435"
       cx="213.62283"
       cy="184.02415"
       r="4.767138"
       transform="rotate(-7.6016979)" />
    <circle
       style="fill:url(#radialGradient1433);fill-opacity:1;stroke:#d2b43c;stroke-width:0.486743;stroke-miterlimit:4;stroke-dasharray:none;stroke-opacity:1"
       id="circle1431"
       cx="325.03857"
       cy="136.14244"
       r="4.767138"
       transform="rotate(-7.6016979)" />
    <path
       style="fill:#c8ab37;stroke:#c8ab37;stroke-width:3.15088;stroke-miterlimit:4;stroke-dasharray:none;stroke-opacity:1"
       d="M 359.72134,291.50065 249.86657,27.61356"
       id="path940" />
    <path
       style="fill:none;stroke:#c8ab37;stroke-width:1.16;stroke-miterlimit:4;stroke-dasharray:none;stroke-dashoffset:0;stroke-opacity:1"
       d="m 226.80254,-200.40935 c -22.41998,7.54922 -46.16526,45.33193 -72.82679,59.7788 -23.01687,13.41938 -44.86571,17.34429 -22.3505,62.911667 17.41389,35.243089 -81.603592,93.307122 -156.5373,114.680089"
       id="path1073"
       sodipodi:nodetypes="ccsc" />
    <text
       xml:space="preserve"
       style="font-size:23.3278px;line-height:0;font-family:sans-serif;-inkscape-font-specification:sans-serif;font-variant-caps:small-caps;fill:none;stroke:#00ffff;stroke-width:1.23987"
       x="-50.685909"
       y="-99.697304"
       id="text919"><tspan
         sodipodi:role="line"
         id="tspan917"
         x="-50.685909"
         y="-99.697304"
         style="fill:#000000;stroke:#00ffff;stroke-width:1.23987">Abyss</tspan></text>
    <ellipse
       style="fill:none;stroke:#000000;stroke-width:0.3"
       id="path833"
       cx="155.60843"
       cy="-104.69693"
       rx="23.514336"
       ry="16.040447" />
    <text
       xml:space="preserve"
       style="font-size:5.64444px;line-height:0;font-family:sans-serif;-inkscape-font-specification:sans-serif;font-variant-caps:small-caps;fill:none;stroke:#000000;stroke-width:0.3"
       x="144.63387"
       y="-103.39061"
       id="text837"><tspan
         sodipodi:role="line"
         id="tspan835"
         x="144.63387"
         y="-103.39061"
         style="fill:#000000;stroke:#ff0000;stroke-width:0.3">Clangor</tspan></text>
    <ellipse
       style="fill:none;stroke:#000000;stroke-width:0.3"
       id="ellipse839"
       cx="184.77634"
       cy="-90.782822"
       rx="23.514336"
       ry="16.040447" />
    <text
       xml:space="preserve"
       style="font-size:5.64444px;line-height:0;font-family:sans-serif;-inkscape-font-specification:sans-serif;font-variant-caps:small-caps;fill:none;stroke:#ff0000;stroke-width:0.3"
       x="173.80179"
       y="-89.476501"
       id="text843"><tspan
         sodipodi:role="line"
         id="tspan841"
         x="173.80179"
         y="-89.476501"
         style="fill:#000000;stroke:#ff0000;stroke-width:0.3">Arborea</tspan></text>
    <ellipse
       style="fill:none;stroke:#000000;stroke-width:0.485972"
       id="ellipse845"
       cx="69.832947"
       cy="-209.11566"
       rx="51.362389"
       ry="19.270063"
       transform="rotate(31.430448)" />
    <text
       xml:space="preserve"
       style="font-size:5.64444px;line-height:0;font-family:sans-serif;-inkscape-font-specification:sans-serif;font-variant-caps:small-caps;fill:none;stroke:#ff0000;stroke-width:0.3"
       x="169.36253"
       y="-126.68994"
       id="text849"><tspan
         sodipodi:role="line"
         id="tspan847"
         x="169.36253"
         y="-126.68994"
         style="fill:#000000;stroke:#ff0000;stroke-width:0.3">Feywild</tspan></text>
    <ellipse
       style="fill:none;stroke:#000000;stroke-width:0.3"
       id="ellipse851"
       cx="90.19899"
       cy="-127.4773"
       rx="23.514336"
       ry="16.040447" />
    <text
       xml:space="preserve"
       style="font-size:5.64444px;line-height:0;font-family:sans-serif;-inkscape-font-specification:sans-serif;font-variant-caps:small-caps;fill:none;stroke:#000000;stroke-width:0.3"
       x="79.224434"
       y="-126.17098"
       id="text855"><tspan
         sodipodi:role="line"
         x="79.224434"
         y="-126.17098"
         style="fill:#000000;stroke:#ff0000;stroke-width:0.3"
         id="tspan857">Avernus</tspan></text>
    <ellipse
       style="fill:none;stroke:#000000;stroke-width:0.42125"
       id="ellipse861"
       cx="88.707886"
       cy="-158.70657"
       rx="31.001694"
       ry="23.988371" />
    <text
       xml:space="preserve"
       style="font-size:5.64444px;line-height:0;font-family:sans-serif;-inkscape-font-specification:sans-serif;font-variant-caps:small-caps;fill:none;stroke:#ff0000;stroke-width:0.3"
       x="74.723557"
       y="-157.13194"
       id="text865"><tspan
         sodipodi:role="line"
         x="74.723557"
         y="-157.13194"
         style="fill:#000000;stroke:#ff0000;stroke-width:0.3"
         id="tspan863">Gahenna</tspan></text>
    <ellipse
       style="fill:none;stroke:#000000;stroke-width:0.3"
       id="ellipse879"
       cx="49.299809"
       cy="-98.523148"
       rx="23.514336"
       ry="16.040447" />
    <text
       xml:space="preserve"
       style="font-size:5.64444px;line-height:0;font-family:sans-serif;-inkscape-font-specification:sans-serif;font-variant-caps:small-caps;fill:none;stroke:#000000;stroke-width:0.3"
       x="38.325268"
       y="-97.216827"
       id="text883"><tspan
         sodipodi:role="line"
         x="38.325268"
         y="-97.216827"
         style="fill:#000000;stroke:#ff0000;stroke-width:0.3"
         id="tspan881">Mycelia</tspan></text>
    <ellipse
       style="fill:none;stroke:#000000;stroke-width:0.44688"
       id="ellipse885"
       cx="98.967804"
       cy="-87.501175"
       rx="35.026966"
       ry="23.893858" />
    <text
       xml:space="preserve"
       style="font-size:5.64444px;line-height:0;font-family:sans-serif;-inkscape-font-specification:sans-serif;font-variant-caps:small-caps;fill:none;stroke:#ff0000;stroke-width:0.3"
       x="74.665306"
       y="-91.254532"
       id="text889"><tspan
         sodipodi:role="line"
         x="74.665306"
         y="-91.254532"
         style="fill:#000000;stroke:#ff0000;stroke-width:0.3"
         id="tspan887">The Grey Wastes</tspan></text>
    <ellipse
       style="fill:none;stroke:#000000;stroke-width:0.642924"
       id="ellipse891"
       cx="75.825752"
       cy="-52.872986"
       rx="60.468052"
       ry="28.648468" />
    <text
       xml:space="preserve"
       style="font-size:9.38101px;line-height:0;font-family:sans-serif;-inkscape-font-specification:sans-serif;font-variant-caps:small-caps;fill:#000000;stroke:#ff0000;stroke-width:0.498597"
       x="32.685062"
       y="-46.107895"
       id="text895"><tspan
         sodipodi:role="line"
         x="32.685062"
         y="-46.107895"
         style="fill:#000000;stroke:#ff0000;stroke-width:0.498597"
         id="tspan893">Shadowfell</tspan></text>
    <ellipse
       style="fill:none;stroke:#000000;stroke-width:0.140143"
       id="ellipse909"
       cx="124.06572"
       cy="-115.31975"
       rx="11.035037"
       ry="7.4588461" />
    <text
       xml:space="preserve"
       style="font-size:5.64444px;line-height:0;font-family:sans-serif;-inkscape-font-specification:sans-serif;font-variant-caps:small-caps;fill:none;stroke:#000000;stroke-width:0.3"
       x="116.32192"
       y="-112.52678"
       id="text913"><tspan
         sodipodi:role="line"
         id="tspan911"
         x="116.32192"
         y="-112.52678"
         style="fill:#000000;stroke:#ff0000;stroke-width:0.3">Power</tspan></text>
    <ellipse
       style="fill:none;stroke:#000000;stroke-width:0.3"
       id="ellipse921"
       cx="220.85132"
       cy="-162.45308"
       rx="23.514336"
       ry="16.040447" />
    <text
       xml:space="preserve"
       style="font-size:5.64444px;line-height:0;font-family:sans-serif;-inkscape-font-specification:sans-serif;font-variant-caps:small-caps;fill:none;stroke:#00ffff;stroke-width:0.3"
       x="209.87675"
       y="-161.14677"
       id="text925"><tspan
         sodipodi:role="line"
         id="tspan923"
         x="209.87675"
         y="-161.14677"
         style="fill:#000000;stroke:#00ffff;stroke-width:0.3">Asfalon</tspan></text>
    <ellipse
       style="fill:none;stroke:#000000;stroke-width:0.3"
       id="ellipse963"
       cx="112.16435"
       cy="-56.140259"
       rx="23.514336"
       ry="16.040447" />
    <text
       xml:space="preserve"
       style="font-size:5.64444px;line-height:0;font-family:sans-serif;-inkscape-font-specification:sans-serif;font-variant-caps:small-caps;fill:none;stroke:#000000;stroke-width:0.3"
       x="101.1898"
       y="-54.833939"
       id="text967"><tspan
         sodipodi:role="line"
         x="101.1898"
         y="-54.833939"
         style="fill:#000000;stroke:#ff0000;stroke-width:0.3"
         id="tspan965">Silent Halls</tspan></text>
    <ellipse
       style="fill:none;stroke:#000000;stroke-width:0.3"
       id="ellipse969"
       cx="142.92433"
       cy="-71.487465"
       rx="23.514336"
       ry="16.040447" />
    <text
       xml:space="preserve"
       style="font-size:5.64444px;line-height:0;font-family:sans-serif;-inkscape-font-specification:sans-serif;font-variant-caps:small-caps;fill:none;stroke:#000000;stroke-width:0.3"
       x="131.94978"
       y="-70.181129"
       id="text973"><tspan
         sodipodi:role="line"
         x="131.94978"
         y="-70.181129"
         style="fill:#000000;stroke:#ff0000;stroke-width:0.3"
         id="tspan971">Labyrinth</tspan></text>
    <ellipse
       style="fill:none;stroke:#000000;stroke-width:0.3"
       id="ellipse975"
       cx="152.30573"
       cy="-34.326958"
       rx="23.514336"
       ry="16.040447" />
    <text
       xml:space="preserve"
       style="font-size:5.64444px;line-height:0;font-family:sans-serif;-inkscape-font-specification:sans-serif;font-variant-caps:small-caps;fill:none;stroke:#000000;stroke-width:0.3"
       x="141.33116"
       y="-33.020638"
       id="text979"><tspan
         sodipodi:role="line"
         id="tspan977"
         x="141.33116"
         y="-33.020638"
         style="fill:#000000;stroke:#ff0000;stroke-width:0.3">Bytopia</tspan></text>
    <ellipse
       style="fill:none;stroke:#000000;stroke-width:0.3"
       id="ellipse981"
       cx="176.60622"
       cy="-57.84259"
       rx="23.514336"
       ry="16.040447" />
    <text
       xml:space="preserve"
       style="font-size:5.64444px;line-height:0;font-family:sans-serif;-inkscape-font-specification:sans-serif;font-variant-caps:small-caps;fill:none;stroke:#ff0000;stroke-width:0.3"
       x="165.63167"
       y="-56.53627"
       id="text985"><tspan
         sodipodi:role="line"
         id="tspan983"
         x="165.63167"
         y="-56.53627"
         style="fill:#000000;stroke:#ff0000;stroke-width:0.3">Elysium</tspan></text>
    <text
       xml:space="preserve"
       style="font-size:5.64444px;line-height:0;font-family:sans-serif;-inkscape-font-specification:sans-serif;font-variant-caps:small-caps;fill:none;stroke:#00ffff;stroke-width:0.3"
       x="217.88766"
       y="-202.01466"
       id="text991"><tspan
         sodipodi:role="line"
         id="tspan989"
         x="217.88766"
         y="-202.01466"
         style="fill:#000000;stroke:#00ffff;stroke-width:0.3">The Spiral</tspan></text>
    <ellipse
       style="fill:none;stroke:#ffcc00;stroke-width:1.16;stroke-miterlimit:4;stroke-dasharray:1.16, 1.16;stroke-dashoffset:0"
       id="path1021"
       cx="87.930305"
       cy="-159.40898"
       rx="30.362675"
       ry="58.526531" />
    <text
       xml:space="preserve"
       style="font-size:5.64444px;line-height:0;font-family:sans-serif;-inkscape-font-specification:sans-serif;font-variant-caps:small-caps;fill:none;stroke:#ffcc00;stroke-width:1.16;stroke-miterlimit:4;stroke-dasharray:1.16, 1.16;stroke-dashoffset:0"
       x="25.152884"
       y="-172.10132"
       id="text1025"><tspan
         sodipodi:role="line"
         id="tspan1023"
         x="25.152884"
         y="-172.10132"
         style="stroke-width:1.16" /></text>
    <text
       xml:space="preserve"
       style="font-size:5.93735px;line-height:0;font-family:sans-serif;-inkscape-font-specification:sans-serif;font-variant-caps:small-caps;fill:none;stroke:#00ffff;stroke-width:0.315569"
       x="77.889915"
       y="-187.78394"
       id="text1029"><tspan
         sodipodi:role="line"
         id="tspan1027"
         x="77.889915"
         y="-187.78394"
         style="fill:#000000;stroke:#00ffff;stroke-width:0.315569">Nine Hells</tspan></text>
    <ellipse
       style="fill:none;stroke:#ffcc00;stroke-width:0.84189;stroke-miterlimit:4;stroke-dasharray:0.84189, 0.84189;stroke-dashoffset:0"
       id="ellipse1031"
       cx="106.76979"
       cy="197.15265"
       rx="28.374674"
       ry="32.988014"
       transform="matrix(0.07226005,-0.99738583,0.97932217,0.2023069,0,0)" />
    <text
       xml:space="preserve"
       style="font-size:5.93735px;line-height:0;font-family:sans-serif;-inkscape-font-specification:sans-serif;font-variant-caps:small-caps;fill:none;stroke:#00ffff;stroke-width:0.315569"
       x="184.72359"
       y="-62.617493"
       id="text1035"><tspan
         sodipodi:role="line"
         id="tspan1033"
         x="184.72359"
         y="-62.617493"
         style="fill:#000000;stroke:#00ffff;stroke-width:0.315569">Seven Heavens</tspan></text>
    <ellipse
       style="fill:none;stroke:#ffcc00;stroke-width:0.796027;stroke-miterlimit:4;stroke-dasharray:0.796027, 0.796027;stroke-dashoffset:0"
       id="ellipse1037"
       cx="138.49767"
       cy="139.32861"
       rx="30.745565"
       ry="27.217592"
       transform="matrix(0.05416023,-0.99853226,0.96397539,0.26599146,0,0)" />
    <text
       xml:space="preserve"
       style="font-size:5.93735px;line-height:0;font-family:sans-serif;-inkscape-font-specification:sans-serif;font-variant-caps:small-caps;fill:none;stroke:#00ffff;stroke-width:0.315569"
       x="119.6059"
       y="-102.27972"
       id="text1041"><tspan
         sodipodi:role="line"
         id="tspan1039"
         x="119.6059"
         y="-102.27972"
         style="fill:#000000;stroke:#00ffff;stroke-width:0.315569">Acheron</tspan></text>
    <ellipse
       style="fill:none;stroke:#000000;stroke-width:0.153237;stroke-miterlimit:4;stroke-dasharray:none"
       id="ellipse1067"
       cx="120.10117"
       cy="-93.762848"
       rx="97.519508"
       ry="88.685867" />
    <ellipse
       style="fill:none;stroke:#000000;stroke-width:1.16;stroke-miterlimit:4;stroke-dasharray:none;stroke-dashoffset:0"
       id="path1091"
       cx="220.44817"
       cy="-162.80946"
       rx="29.110725"
       ry="3.4436941" />
    <ellipse
       style="fill:none;stroke:#000000;stroke-width:0.3"
       id="ellipse1093"
       cx="220.85132"
       cy="-162.45308"
       rx="23.514336"
       ry="25.092358" />
    <text
       xml:space="preserve"
       style="font-size:5.93735px;line-height:0;font-family:sans-serif;-inkscape-font-specification:sans-serif;font-variant-caps:small-caps;fill:none;stroke:#00ffff;stroke-width:0.315569"
       x="114.78301"
       y="-174.77733"
       id="text1101"><tspan
         sodipodi:role="line"
         x="114.78301"
         y="-174.77733"
         style="fill:#000000;stroke:#00ffff;stroke-width:0.315569"
         id="tspan1103">Unravelling</tspan></text>
    <text
       xml:space="preserve"
       style="font-size:5.64444px;line-height:1.5;font-family:sans-serif;-inkscape-font-specification:sans-serif;font-variant-caps:small-caps;fill:none;stroke:#000000;stroke-width:0.203;stroke-miterlimit:4;stroke-dasharray:none;stroke-dashoffset:0"
       x="239.21991"
       y="-110.29585"
       id="text1109"><tspan
         sodipodi:role="line"
         x="239.21991"
         y="-110.29585"
         style="fill:#000000;stroke:none;stroke-width:0.203"
         id="tspan1183" /></text>
    <text
       xml:space="preserve"
       style="font-size:5.64444px;line-height:1.5;font-family:sans-serif;-inkscape-font-specification:sans-serif;font-variant-caps:small-caps;fill:#000000;stroke:none;stroke-width:0.203;stroke-miterlimit:4;stroke-dasharray:none;stroke-dashoffset:0"
       x="-77.455261"
       y="169.70836"
       id="text1131"><tspan
         sodipodi:role="line"
         x="-77.455261"
         y="169.70836"
         style="stroke-width:0.203"
         id="tspan1133"
         dy="0">Age of death:</tspan><tspan
         sodipodi:role="line"
         x="-77.455261"
         y="178.17502"
         style="stroke-width:0.203"
         id="tspan1137">Silent Halls</tspan><tspan
         sodipodi:role="line"
         x="-77.455261"
         y="186.64168"
         style="stroke-width:0.203"
         id="tspan1139">Forge of Creation (Avernus)</tspan><tspan
         sodipodi:role="line"
         x="-77.455261"
         y="195.10834"
         style="stroke-width:0.203"
         id="tspan1145">Mycelia</tspan><tspan
         sodipodi:role="line"
         x="-77.455261"
         y="203.575"
         style="stroke-width:0.203"
         id="tspan1147">Clangor</tspan><tspan
         sodipodi:role="line"
         x="-77.455261"
         y="212.04166"
         style="stroke-width:0.203"
         id="tspan1149">Bytopia</tspan><tspan
         sodipodi:role="line"
         x="-77.455261"
         y="220.50832"
         style="stroke-width:0.203"
         id="tspan1151">--</tspan><tspan
         sodipodi:role="line"
         x="-77.455261"
         y="228.97498"
         style="stroke-width:0.203"
         id="tspan1153">Labyrinth</tspan><tspan
         sodipodi:role="line"
         x="-77.455261"
         y="237.44164"
         style="stroke-width:0.203"
         id="tspan1155">FIRST GREAT WAR OF GAHENNA, HADES AND ELYSIUM, ARBOREA</tspan><tspan
         sodipodi:role="line"
         x="-77.455261"
         y="245.90829"
         style="stroke-width:0.203"
         id="tspan1157">Grey Wastes</tspan><tspan
         sodipodi:role="line"
         x="-77.455261"
         y="254.37495"
         style="stroke-width:0.203"
         id="tspan1159">Arborea</tspan><tspan
         sodipodi:role="line"
         x="-77.455261"
         y="262.84161"
         style="stroke-width:0.203"
         id="tspan1161">Power</tspan><tspan
         sodipodi:role="line"
         x="-77.455261"
         y="271.30826"
         style="stroke-width:0.203"
         id="tspan1163">Elysium</tspan><tspan
         sodipodi:role="line"
         x="-77.455261"
         y="279.77493"
         style="stroke-width:0.203"
         id="tspan1165">Gahenna</tspan><tspan
         sodipodi:role="line"
         x="-77.455261"
         y="288.24158"
         style="stroke-width:0.203"
         id="tspan1167">Shadowfell</tspan><tspan
         sodipodi:role="line"
         x="-77.455261"
         y="296.70825"
         style="stroke-width:0.203"
         id="tspan1169">Feywild</tspan><tspan
         sodipodi:role="line"
         x="-77.455261"
         y="305.1749"
         style="stroke-width:0.203"
         id="tspan1143" /><tspan
         sodipodi:role="line"
         x="-77.455261"
         y="313.64157"
         style="stroke-width:0.203"
         id="tspan1141" /></text>
    <path
       style="fill:url(#radialGradient1244);fill-opacity:1;stroke:none;stroke-width:0.60444"
       id="path938"
       sodipodi:type="arc"
       sodipodi:cx="299.58145"
       sodipodi:cy="-301.06094"
       sodipodi:rx="89.435982"
       sodipodi:ry="19.622414"
       sodipodi:start="0"
       sodipodi:end="3.1415927"
       sodipodi:arc-type="slice"
       d="m 389.01743,-301.06094 a 89.435982,19.622414 0 0 1 -44.71799,16.99351 89.435982,19.622414 0 0 1 -89.43598,-10e-6 89.435982,19.622414 0 0 1 -44.71799,-16.9935 h 89.43598 z"
       transform="scale(1,-1)" />
    <circle
       style="fill:url(#radialGradient1046);fill-opacity:1;stroke:#c8ab37;stroke-width:0.220562;stroke-miterlimit:4;stroke-dasharray:none;stroke-opacity:1"
       id="path942"
       cx="266.22925"
       cy="69.609497"
       r="17.59038"
       transform="rotate(-7.6016979)" />
    <circle
       style="fill:url(#radialGradient1262);fill-opacity:1;stroke:#c8ab37;stroke-width:0.220562;stroke-miterlimit:4;stroke-dasharray:none;stroke-opacity:1"
       id="circle944"
       cx="265.66379"
       cy="291.65723"
       r="31.170979"
       transform="rotate(-7.6016979)" />
    <path
       style="fill:#c8ab37;stroke:#c8ab37;stroke-width:3.15088;stroke-miterlimit:4;stroke-dasharray:none;stroke-opacity:1"
       d="M 402.90662,75.717019 178.48219,169.14369"
       id="path946" />
    <circle
       style="fill:url(#radialGradient1216);fill-opacity:1;stroke:#c8ab37;stroke-width:0.220562;stroke-miterlimit:4;stroke-dasharray:none;stroke-opacity:1"
       id="circle948"
       cx="270.00723"
       cy="160.42743"
       r="15.536392"
       transform="rotate(-7.6016979)" />
    <path
       style="fill:url(#radialGradient1054);fill-opacity:1;stroke:#c8ab37;stroke-width:0.354474;stroke-miterlimit:4;stroke-dasharray:none;stroke-opacity:1"
       id="circle952"
       sodipodi:type="arc"
       sodipodi:cx="-219.66644"
       sodipodi:cy="-204.88712"
       sodipodi:rx="42.048046"
       sodipodi:ry="42.048046"
       sodipodi:start="0"
       sodipodi:end="3.1415927"
       sodipodi:arc-type="slice"
       d="m -177.6184,-204.88712 a 42.048046,42.048046 0 0 1 -21.02402,36.41468 42.048046,42.048046 0 0 1 -42.04805,0 42.048046,42.048046 0 0 1 -21.02402,-36.41468 h 42.04805 z"
       transform="rotate(157.3983)" />
    <path
       style="fill:url(#radialGradient1220);fill-opacity:1;stroke:#c8ab37;stroke-width:0.220562;stroke-miterlimit:4;stroke-dasharray:none;stroke-opacity:1"
       id="path954"
       sodipodi:type="arc"
       sodipodi:cx="220.95949"
       sodipodi:cy="244.84819"
       sodipodi:rx="42.048046"
       sodipodi:ry="42.048046"
       sodipodi:start="0"
       sodipodi:end="3.1415927"
       sodipodi:arc-type="slice"
       d="m 263.00753,244.84819 a 42.048046,42.048046 0 0 1 -21.02402,36.41468 42.048046,42.048046 0 0 1 -42.04805,0 42.048046,42.048046 0 0 1 -21.02402,-36.41468 h 42.04805 z"
       transform="rotate(-22.601698)" />
    <ellipse
       style="fill:url(#radialGradient1214);fill-opacity:1;stroke:#c8ab37;stroke-width:0.220562;stroke-miterlimit:4;stroke-dasharray:none;stroke-opacity:1"
       id="path986"
       cx="295.3963"
       cy="223.80664"
       rx="50.163559"
       ry="10.841051"
       transform="rotate(-22.601698)" />
    <ellipse
       style="fill:url(#radialGradient1218);fill-opacity:1;stroke:#c8ab37;stroke-width:0.220562;stroke-miterlimit:4;stroke-dasharray:none;stroke-opacity:1"
       id="ellipse990"
       cx="143.29948"
       cy="224.30151"
       rx="50.163559"
       ry="10.841051"
       transform="rotate(-22.601698)" />
    <circle
       style="fill:url(#radialGradient1236);fill-opacity:1;stroke:#d2b43c;stroke-width:0.486743;stroke-miterlimit:4;stroke-dasharray:none;stroke-opacity:1"
       id="circle1028"
       cx="257.74896"
       cy="152.45128"
       r="4.767138"
       transform="rotate(-7.6016979)" />
    <circle
       style="fill:url(#radialGradient1230);fill-opacity:1;stroke:#d2b43c;stroke-width:0.486743;stroke-miterlimit:4;stroke-dasharray:none;stroke-opacity:1"
       id="circle1030"
       cx="277.20969"
       cy="148.67424"
       r="4.767138"
       transform="rotate(-7.6016979)" />
    <circle
       style="fill:url(#radialGradient1232);fill-opacity:1;stroke:#d2b43c;stroke-width:0.486743;stroke-miterlimit:4;stroke-dasharray:none;stroke-opacity:1"
       id="circle1032"
       cx="282.02881"
       cy="166.87862"
       r="4.767138"
       transform="rotate(-7.6016979)" />
    <circle
       style="fill:url(#radialGradient1234);fill-opacity:1;stroke:#d2b43c;stroke-width:0.486743;stroke-miterlimit:4;stroke-dasharray:none;stroke-opacity:1"
       id="circle1034"
       cx="262.56528"
       cy="172.01375"
       r="4.767138"
       transform="rotate(-7.6016979)" />
    <path
       style="fill:#fde47e;fill-opacity:1;stroke:#c8ab37;stroke-width:1.14;stroke-miterlimit:4;stroke-dasharray:none;stroke-opacity:1"
       d="m 334.94246,81.756436 16.87041,35.539944"
       id="path1417" />
    <circle
       style="fill:url(#radialGradient1421);fill-opacity:1;stroke:#d2b43c;stroke-width:0.486743;stroke-miterlimit:4;stroke-dasharray:none;stroke-opacity:1"
       id="circle1419"
       cx="320.50952"
       cy="124.74975"
       r="4.767138"
       transform="rotate(-7.6016979)" />
    <circle
       style="fill:url(#radialGradient1425);fill-opacity:1;stroke:#d2b43c;stroke-width:0.486743;stroke-miterlimit:4;stroke-dasharray:none;stroke-opacity:1"
       id="circle1423"
       cx="333.71588"
       cy="164.27596"
       r="4.767138"
       transform="rotate(-7.6016979)" />
    <circle
       style="fill:url(#radialGradient1429);fill-opacity:1;stroke:#d2b43c;stroke-width:0.486743;stroke-miterlimit:4;stroke-dasharray:none;stroke-opacity:1"
       id="circle1427"
       cx="328.03302"
       cy="146.66498"
       r="4.767138"
       transform="rotate(-7.6016979)" />
    <path
       style="fill:#fde47e;fill-opacity:1;stroke:#c8ab37;stroke-width:1.14;stroke-miterlimit:4;stroke-dasharray:none;stroke-opacity:1"
       d="m 224.29804,127.38514 16.87041,35.53995"
       id="path1437" />
    <circle
       style="fill:url(#radialGradient1449);fill-opacity:1;stroke:#d2b43c;stroke-width:0.486743;stroke-miterlimit:4;stroke-dasharray:none;stroke-opacity:1"
       id="circle1439"
       cx="204.80145"
       cy="155.34077"
       r="4.767138"
       transform="rotate(-7.6016979)" />
    <circle
       style="fill:url(#radialGradient1447);fill-opacity:1;stroke:#d2b43c;stroke-width:0.486743;stroke-miterlimit:4;stroke-dasharray:none;stroke-opacity:1"
       id="circle1441"
       cx="218.00781"
       cy="194.86697"
       r="4.767138"
       transform="rotate(-7.6016979)" />
    <circle
       style="fill:url(#radialGradient1445);fill-opacity:1;stroke:#d2b43c;stroke-width:0.486743;stroke-miterlimit:4;stroke-dasharray:none;stroke-opacity:1"
       id="circle1443"
       cx="210.3725"
       cy="170.76334"
       r="4.767138"
       transform="rotate(-7.6016979)" />
  </g>
</svg>
